<svg width="10" height="10" viewBox="0 0 10 10" fill="none" xmlns="http://www.w3.org/2000/svg">
<path fill-rule="evenodd" clip-rule="evenodd" d="M6.09375 8.85425L6.09375 0.729248C6.09375 0.55665 6.23365 0.416748 6.40625 0.416748L7.1875 0.416748C7.3601 0.416748 7.5 0.55665 7.5 0.729248L7.5 8.85425C7.5 9.02685 7.3601 9.16675 7.1875 9.16675L6.40625 9.16675C6.23365 9.16675 6.09375 9.02685 6.09375 8.85425ZM2.96875 8.85425L2.96875 0.729248C2.96875 0.55665 3.10865 0.416748 3.28125 0.416748L4.0625 0.416748C4.2351 0.416748 4.375 0.55665 4.375 0.729248L4.375 8.85425C4.375 9.02685 4.2351 9.16675 4.0625 9.16675L3.28125 9.16675C3.10865 9.16675 2.96875 9.02685 2.96875 8.85425Z" fill="#F9FCFF"/>
</svg>
