<svg width="80" height="80" viewBox="0 0 80 80" fill="none" xmlns="http://www.w3.org/2000/svg">
<path d="M78.61 32.7312L61.7988 12.5587C61.2357 11.8831 60.531 11.3396 59.7345 10.9665C58.9381 10.5935 58.0695 10.4001 57.19 10.3999H4C1.79125 10.3999 0 12.1912 0 14.3999V50.3999C0 52.6087 1.79125 54.3999 4 54.3999H8C8 61.0274 13.3725 66.3999 20 66.3999C26.6275 66.3999 32 61.0274 32 54.3999H48C48 61.0274 53.3725 66.3999 60 66.3999C66.6275 66.3999 72 61.0274 72 54.3999H76C78.2088 54.3999 80 52.6087 80 50.3999V36.5724C80 35.1687 79.5075 33.8099 78.61 32.7312ZM8 30.3999V18.3999H20V30.3999H8ZM20 60.3999C16.6862 60.3999 14 57.7137 14 54.3999C14 51.0862 16.6862 48.3999 20 48.3999C23.3138 48.3999 26 51.0862 26 54.3999C26 57.7137 23.3138 60.3999 20 60.3999ZM40 30.3999H28V18.3999H40V30.3999ZM60 60.3999C56.6862 60.3999 54 57.7137 54 54.3999C54 51.0862 56.6862 48.3999 60 48.3999C63.3138 48.3999 66 51.0862 66 54.3999C66 57.7137 63.3138 60.3999 60 60.3999ZM48 30.3999V18.3999H56.2525L66.2525 30.3999H48Z" fill="#F9FCFF"/>
</svg>
