<svg width="80" height="80" viewBox="0 0 80 80" fill="none" xmlns="http://www.w3.org/2000/svg">
<g clip-path="url(#clip0_997_491)">
<path d="M22.625 1.05626C20.8594 -1.72499 16.8125 -2.50624 14.1875 -0.412493C5.51563 6.50938 0 16.8375 0 28.4H40L22.625 1.05626ZM77.5 13.4H70C64.4844 13.4 60 17.8844 60 23.4V33.4H0C0 41.3063 3.59375 48.4625 9.42187 53.8219C4.01563 55.2125 0 60.0719 0 65.9C0 72.8063 5.59375 78.4 12.5 78.4C19.4063 78.4 25 72.8063 25 65.9C25 64.5094 24.7188 63.2125 24.3125 61.9625C27.6875 62.8844 31.2813 63.4 35 63.4C38.7187 63.4 42.3281 62.8844 45.6875 61.9625C45.2656 63.2125 45 64.5094 45 65.9C45 72.8063 50.5937 78.4 57.5 78.4C64.4063 78.4 70 72.8063 70 65.9C70 60.0719 65.9844 55.2125 60.5781 53.8219C66.4063 48.4625 70 41.3063 70 33.4V23.4H77.5C78.875 23.4 80 22.275 80 20.9V15.9C80 14.525 78.875 13.4 77.5 13.4ZM12.5 70.9C9.75 70.9 7.5 68.65 7.5 65.9C7.5 63.15 9.75 60.9 12.5 60.9C15.25 60.9 17.5 63.15 17.5 65.9C17.5 68.65 15.25 70.9 12.5 70.9ZM62.5 65.9C62.5 68.65 60.25 70.9 57.5 70.9C54.75 70.9 52.5 68.65 52.5 65.9C52.5 63.15 54.75 60.9 57.5 60.9C60.25 60.9 62.5 63.15 62.5 65.9Z" fill="#F9FCFF"/>
</g>
<defs>
<clipPath id="clip0_997_491">
<rect width="80" height="80" fill="white"/>
</clipPath>
</defs>
</svg>
