<svg width="40" height="40" viewBox="0 0 40 40" fill="none" xmlns="http://www.w3.org/2000/svg">
<g clip-path="url(#clip0_997_477)">
<path d="M20 2.22217C15.1674 2.22217 11.25 6.13953 11.25 10.9722C11.25 14.8791 16.9688 21.9999 19.1597 24.5847C19.6035 25.1083 20.3972 25.1083 20.8403 24.5847C23.0313 21.9999 28.75 14.8791 28.75 10.9722C28.75 6.13953 24.8326 2.22217 20 2.22217ZM20 13.8888C18.3889 13.8888 17.0833 12.5833 17.0833 10.9722C17.0833 9.36106 18.3889 8.0555 20 8.0555C21.6111 8.0555 22.9167 9.36106 22.9167 10.9722C22.9167 12.5833 21.6111 13.8888 20 13.8888ZM1.39722 17.2187C0.984846 17.3836 0.631341 17.6683 0.382298 18.0361C0.133256 18.4038 9.87644e-05 18.8378 0 19.2819L0 36.6652C0 37.4513 0.79375 37.9888 1.52361 37.6972L11.1111 33.3333V17.1472C10.4972 16.0374 9.99514 14.9569 9.63542 13.9236L1.39722 17.2187ZM20 27.1993C19.0229 27.1993 18.0986 26.7701 17.4646 26.0215C16.0993 24.4104 14.6472 22.5756 13.3333 20.6937V33.3326L26.6667 37.777V20.6944C25.3528 22.5756 23.9014 24.4111 22.5354 26.0222C21.9014 26.7701 20.9771 27.1993 20 27.1993ZM38.4764 13.4138L28.8889 17.7777V37.7777L38.6028 33.8923C39.0152 33.7274 39.3688 33.4428 39.6178 33.075C39.8669 32.7072 40 32.2733 40 31.8291V14.4458C40 13.6597 39.2063 13.1222 38.4764 13.4138Z" fill="#081F5C"/>
</g>
<defs>
<clipPath id="clip0_997_477">
<rect width="40" height="40" fill="white"/>
</clipPath>
</defs>
</svg>
