<svg width="80" height="80" viewBox="0 0 80 80" fill="none" xmlns="http://www.w3.org/2000/svg">
<path d="M73.125 25H6.875C5.83953 25 5 24.1605 5 23.125V17.5C5 13.3578 8.35781 10 12.5 10H20V1.875C20 0.839531 20.8395 0 21.875 0H28.125C29.1605 0 30 0.839531 30 1.875V10H50V1.875C50 0.839531 50.8395 0 51.875 0H58.125C59.1605 0 60 0.839531 60 1.875V10H67.5C71.6422 10 75 13.3578 75 17.5V23.125C75 24.1605 74.1605 25 73.125 25ZM6.875 30H73.125C74.1605 30 75 30.8395 75 31.875V72.5C75 76.6422 71.6422 80 67.5 80H12.5C8.35781 80 5 76.6422 5 72.5V31.875C5 30.8395 5.83953 30 6.875 30ZM58.9525 44.9917L54.5511 40.5545C53.8219 39.8194 52.6347 39.8145 51.8995 40.5439L35.3312 56.9789L28.1469 49.7364C27.4177 49.0012 26.2303 48.9964 25.4952 49.7258L21.0581 54.1273C20.323 54.8566 20.3181 56.0438 21.0475 56.7789L33.9539 69.7897C34.6831 70.5248 35.8703 70.5297 36.6055 69.8003L58.9419 47.6433C59.677 46.9141 59.6819 45.7269 58.9525 44.9917Z" fill="#081F5C"/>
</svg>
