<svg width="80" height="80" viewBox="0 0 80 80" fill="none" xmlns="http://www.w3.org/2000/svg">
<g clip-path="url(#clip0_997_585)">
<path d="M40 4.44434C30.3347 4.44434 22.5 12.2791 22.5 21.9443C22.5 29.7582 33.9375 43.9999 38.3194 49.1693C39.2069 50.2166 40.7944 50.2166 41.6806 49.1693C46.0625 43.9999 57.5 29.7582 57.5 21.9443C57.5 12.2791 49.6653 4.44434 40 4.44434ZM40 27.7777C36.7778 27.7777 34.1667 25.1666 34.1667 21.9443C34.1667 18.7221 36.7778 16.111 40 16.111C43.2222 16.111 45.8333 18.7221 45.8333 21.9443C45.8333 25.1666 43.2222 27.7777 40 27.7777ZM2.79444 34.4374C1.96969 34.7673 1.26268 35.3367 0.764597 36.0722C0.266512 36.8077 0.000197529 37.6755 0 38.5638L0 73.3304C0 74.9027 1.5875 75.9777 3.04722 75.3943L22.2222 66.6666V34.2943C20.9944 32.0749 19.9903 29.9138 19.2708 27.8471L2.79444 34.4374ZM40 54.3985C38.0458 54.3985 36.1972 53.5402 34.9292 52.0429C32.1986 48.8207 29.2944 45.1513 26.6667 41.3874V66.6652L53.3333 75.5541V41.3888C50.7056 45.1513 47.8028 48.8221 45.0708 52.0443C43.8028 53.5402 41.9542 54.3985 40 54.3985ZM76.9528 26.8277L57.7778 35.5554V75.5554L77.2056 67.7846C78.0304 67.4549 78.7375 66.8855 79.2356 66.15C79.7338 65.4145 80 64.5465 80 63.6582V28.8916C80 27.3193 78.4125 26.2443 76.9528 26.8277Z" fill="white"/>
</g>
<defs>
<clipPath id="clip0_997_585">
<rect width="80" height="80" fill="white"/>
</clipPath>
</defs>
</svg>
