<svg width="80" height="80" viewBox="0 0 80 80" fill="none" xmlns="http://www.w3.org/2000/svg">
<g clip-path="url(#clip0_997_538)">
<path d="M4.6668 17.111L10.2226 17.111L15.3316 26.0525C15.3997 26.1716 15.4981 26.2705 15.6167 26.3393C15.7354 26.4081 15.8701 26.4443 16.0073 26.4443L19.1913 26.4443C19.708 26.4443 20.0809 25.95 19.9389 25.4532L17.5555 17.111L22.5557 17.111L24.6557 19.911C24.8025 20.1069 25.0334 20.2221 25.2779 20.2221L27.2219 20.2221C27.7279 20.2221 28.0993 19.7467 27.9763 19.2557L26.4446 13.9999L27.9763 8.74406C28.0993 8.25309 27.7279 7.77767 27.2219 7.77767L25.2779 7.77767C25.0329 7.77767 24.8025 7.89288 24.6557 8.08878L22.5557 10.8888L17.5555 10.8888L19.939 2.54711C20.0809 2.05031 19.708 1.55545 19.1913 1.55545L16.0073 1.55545C15.7283 1.55545 15.4706 1.70517 15.3321 1.94725L10.2226 10.8888L4.6668 10.8888C2.94839 10.8888 0.000128342 12.2815 0.000128192 13.9999C0.000128041 15.7183 2.94839 17.111 4.6668 17.111Z" fill="#F9FCFF"/>
<g clip-path="url(#clip1_997_538)">
<path d="M75.3332 62.889H69.7774L64.6684 53.9475C64.6003 53.8284 64.5019 53.7295 64.3833 53.6607C64.2646 53.5919 64.1299 53.5557 63.9927 53.5557H60.8087C60.292 53.5557 59.9191 54.05 60.0611 54.5468L62.4445 62.889H57.4443L55.3443 60.089C55.1975 59.8931 54.9666 59.7779 54.7221 59.7779H52.7781C52.2721 59.7779 51.9007 60.2533 52.0237 60.7443L53.5554 66.0001L52.0237 71.2559C51.9007 71.7469 52.2721 72.2223 52.7781 72.2223H54.7221C54.9671 72.2223 55.1975 72.1071 55.3443 71.9112L57.4443 69.1112H62.4445L60.0611 77.4529C59.9191 77.9497 60.292 78.4446 60.8087 78.4446H63.9927C64.2717 78.4446 64.5294 78.2948 64.6679 78.0527L69.7774 69.1112H75.3332C77.0516 69.1112 79.9999 67.7185 79.9999 66.0001C79.9999 64.2817 77.0516 62.889 75.3332 62.889Z" fill="#F9FCFF"/>
</g>
<g clip-path="url(#clip2_997_538)">
<path d="M36.0753 25.5854C37.8679 24.7286 39.8732 24.2425 42.0061 24.2486C49.602 24.2486 55.7577 30.4043 55.7577 38.0001L55.7516 40.0844L53.6673 38.0001C52.5917 36.9246 50.8538 36.9246 49.7782 38.0001C48.7026 39.0757 48.7026 40.8136 49.7782 41.8892L56.5537 48.6647L56.578 48.689C57.6536 49.7646 59.3916 49.7646 60.4671 48.689L67.273 41.8831C68.3486 40.8076 68.3486 39.0696 67.273 37.9941C66.1975 36.9185 64.4595 36.9185 63.384 37.9941L61.245 40.1331L61.251 38.0001C61.251 27.3659 52.6343 18.7492 42 18.7492C39.0346 18.7492 36.2211 19.4237 33.6993 20.6329C32.3259 21.2892 31.7547 22.9299 32.4049 24.2972C33.0551 25.6644 34.7019 26.2417 36.0692 25.5915L36.0753 25.5854ZM26.7901 26.8372C26.3951 26.6246 25.9393 26.4969 25.4593 26.503C24.9731 26.503 24.5174 26.6306 24.1163 26.8615C24.0252 26.9162 23.9279 26.977 23.8368 27.0438C23.7153 27.1289 23.6059 27.2261 23.5026 27.3295L16.721 34.111C15.6454 35.1866 15.6454 36.9246 16.721 38.0001C17.7966 39.0757 19.5345 39.0757 20.6101 38.0001L22.743 35.8672L22.7491 38.0001C22.7551 48.6283 31.3719 57.245 41.994 57.245C44.9594 57.245 47.779 56.5766 50.3008 55.3673C51.6742 54.7111 52.2454 53.0703 51.5952 51.7031C50.945 50.3358 49.2982 49.7585 47.9309 50.4088C46.1383 51.2656 44.133 51.7517 42 51.7456C34.4042 51.7456 28.2485 45.5899 28.2485 37.9941V37.9819L28.2424 35.9098L30.3328 38.0001C31.4084 39.0757 33.1463 39.0757 34.2219 38.0001C35.2975 36.9246 35.2975 35.1866 34.2219 34.111L27.4403 27.3295C27.3431 27.2322 27.2397 27.1411 27.1304 27.056C27.021 26.9709 26.9116 26.898 26.7901 26.8372Z" fill="#F9FCFF"/>
</g>
</g>
<defs>
<clipPath id="clip0_997_538">
<rect width="80" height="80" fill="white"/>
</clipPath>
<clipPath id="clip1_997_538">
<rect width="28" height="28" fill="white" transform="translate(52 52)"/>
</clipPath>
<clipPath id="clip2_997_538">
<rect width="44" height="44" fill="white" transform="translate(42 6.88745) rotate(45)"/>
</clipPath>
</defs>
</svg>
