<svg width="14" height="16" viewBox="0 0 14 16" fill="none" xmlns="http://www.w3.org/2000/svg">
<g clip-path="url(#clip0_998_671)">
<path d="M13.7299 2.64071C14.1419 2.21571 14.0763 1.58446 13.5804 1.23133C13.0846 0.878208 12.3481 0.934458 11.9361 1.35946L6.99969 6.43758L2.06323 1.35946C1.65125 0.934458 0.914795 0.878208 0.418961 1.23133C-0.0768721 1.58446 -0.142497 2.21571 0.269482 2.64071L5.47938 8.00008L0.269482 13.3595C-0.142497 13.7845 -0.0768721 14.4157 0.418961 14.7688C0.914795 15.122 1.65125 15.0657 2.06323 14.6407L6.99969 9.56258L11.9361 14.6407C12.3481 15.0657 13.0846 15.122 13.5804 14.7688C14.0763 14.4157 14.1419 13.7845 13.7299 13.3595L8.52 8.00008L13.7299 2.64071Z" fill="#F9FCFF"/>
</g>
<defs>
<clipPath id="clip0_998_671">
<rect width="14" height="16" fill="white"/>
</clipPath>
</defs>
</svg>
