<svg width="80" height="80" viewBox="0 0 80 80" fill="none" xmlns="http://www.w3.org/2000/svg">
<path d="M72.1875 37.7562L68.75 24.5C67.25 19 62.25 15 56.75 15H55V10C55 7.23906 52.7609 5 50 5H30C27.2391 5 25 7.23906 25 10V15H23.25C17.75 15 12.75 19 11.25 24.5L7.8125 37.7562C3.34531 38.7562 0 42.7297 0 47.5V55C0 58.6922 2.02344 61.8812 5 63.6125V70C5 72.7609 7.23906 75 10 75H15C17.7609 75 20 72.7609 20 70V65H60V70C60 72.7609 62.2391 75 65 75H70C72.7609 75 75 72.7609 75 70V63.6125C77.9766 61.8797 80 58.6906 80 55V47.5C80 42.7297 76.6547 38.7562 72.1875 37.7562ZM15 55C12.2391 55 10 52.7609 10 50C10 47.2391 12.2391 45 15 45C17.7609 45 20 47.2391 20 50C20 52.7609 17.7609 55 15 55ZM18.2109 37.5L20.8984 27.1312C21.2469 25.8562 22.3969 25 23.2516 25H56.7516C57.6062 25 58.7562 25.8563 59.0719 27.0094L61.7891 37.5H18.2109ZM65 55C62.2391 55 60 52.7609 60 50C60 47.2391 62.2391 45 65 45C67.7609 45 70 47.2391 70 50C70 52.7609 67.7609 55 65 55Z" fill="#081F5C"/>
</svg>
