<svg width="80" height="80" viewBox="0 0 80 80" fill="none" xmlns="http://www.w3.org/2000/svg">
<g clip-path="url(#clip0_997_551)">
<g clip-path="url(#clip1_997_551)">
<path d="M34.2916 10.0543C32.4999 10.2088 31.111 11.726 31.111 13.5523C31.111 15.491 32.6666 17.0643 34.5832 17.0643H55.5554C56.7777 17.0643 57.7777 16.0529 57.7777 14.8166V10.5179C57.7777 9.19738 56.6666 8.17186 55.3749 8.2702L34.2916 10.0543ZM33.3332 23.8075C33.3332 30.0168 38.3054 35.046 44.4443 35.046C50.5832 35.046 55.5554 30.0168 55.5554 23.8075C55.5554 23.0348 55.4721 22.2903 55.3332 21.5598H33.5554C33.4166 22.2903 33.3332 23.0348 33.3332 23.8075ZM9.99989 39.5414C6.93045 39.5414 4.44434 42.056 4.44434 45.1607C4.44434 48.2653 6.93045 50.7799 9.99989 50.7799H31.111V63.339L53.7221 40.4545C51.8749 39.8505 49.9305 39.5414 47.9443 39.5414H33.3332H9.99989ZM58.0138 42.4775L34.2499 66.5139H57.7777V60.0096L65.2221 72.7372C66.7777 75.4064 70.1943 76.2914 72.8332 74.718C75.4721 73.1446 76.3471 69.6888 74.7916 67.0196L64.2082 48.9256C62.6527 46.2705 60.5138 44.079 58.0138 42.4775ZM31.111 71.0093V75.5047C31.111 77.9912 33.0971 80.0001 35.5554 80.0001H53.3332C55.7916 80.0001 57.7777 77.9912 57.7777 75.5047V71.0093H31.111Z" fill="white"/>
</g>
<g clip-path="url(#clip2_997_551)">
<path d="M7.57594 8.32569H9.40828C9.47813 7.04703 9.71484 5.89657 10.0744 4.99494C8.77547 5.62126 7.82344 6.84882 7.57594 8.32569ZM7.57594 9.83945C7.82391 11.3163 8.77547 12.5439 10.0744 13.1702C9.71437 12.2686 9.47813 11.1181 9.40828 9.83945H7.57594ZM12 13.5619C12.3605 13.2095 12.9736 11.9336 13.0983 9.83945H10.9012C11.0264 11.9332 11.6395 13.2095 12 13.5619ZM10.9017 8.32569H13.0988C12.9741 6.23197 12.3609 4.95568 12.0005 4.60325C11.6395 4.95568 11.0264 6.23197 10.9017 8.32569ZM13.9256 13.1702C15.2245 12.5439 16.1766 11.3163 16.4241 9.83945H14.5917C14.5219 11.1181 14.2856 12.2686 13.9256 13.1702ZM21 0H4.5C2.84297 0 1.5 1.35529 1.5 3.02752V21.1927C1.5 22.8649 2.84297 24.2202 4.5 24.2202H21C21.8283 24.2202 22.5 23.5423 22.5 22.7064V1.51376C22.5 0.677881 21.8283 0 21 0ZM17.25 19.6789H6.75C6.3375 19.6789 6 19.3383 6 18.922C6 18.5057 6.3375 18.1651 6.75 18.1651H17.25C17.6625 18.1651 18 18.5057 18 18.922C18 19.3383 17.6625 19.6789 17.25 19.6789ZM12 15.1376C8.68641 15.1376 6 12.4266 6 9.08257C6 5.73857 8.68641 3.02752 12 3.02752C15.3136 3.02752 18 5.73857 18 9.08257C18 12.4266 15.3136 15.1376 12 15.1376ZM13.9256 4.99494C14.2856 5.89657 14.5219 7.04703 14.5917 8.32569H16.4241C16.1766 6.84882 15.2245 5.62126 13.9256 4.99494Z" fill="white"/>
</g>
</g>
<defs>
<clipPath id="clip0_997_551">
<rect width="80" height="80" fill="white"/>
</clipPath>
<clipPath id="clip1_997_551">
<rect width="80" height="71.9266" fill="white" transform="translate(0 8.07349)"/>
</clipPath>
<clipPath id="clip2_997_551">
<rect width="24" height="24.2202" fill="white"/>
</clipPath>
</defs>
</svg>
