<svg width="80" height="80" viewBox="0 0 80 80" fill="none" xmlns="http://www.w3.org/2000/svg">
<g clip-path="url(#clip0_997_527)">
<g clip-path="url(#clip1_997_527)">
<path d="M66 0.4375C58.5078 0.4375 52.4375 6.50781 52.4375 14C52.4375 21.4922 58.5078 27.5625 66 27.5625C73.4922 27.5625 79.5625 21.4922 79.5625 14C79.5625 6.50781 73.4922 0.4375 66 0.4375ZM69.1227 19.5836L64.2992 16.0781C64.1297 15.9523 64.0312 15.7555 64.0312 15.5477V6.34375C64.0312 5.98281 64.3266 5.6875 64.6875 5.6875H67.3125C67.6734 5.6875 67.9688 5.98281 67.9688 6.34375V13.8742L71.4414 16.4008C71.7367 16.6141 71.7969 17.0242 71.5836 17.3195L70.0414 19.4414C69.8281 19.7313 69.418 19.7969 69.1227 19.5836Z" fill="#F9FCFF"/>
</g>
<path d="M78 64.0001H2C0.895 64.0001 0 64.8951 0 66.0001V70.0001C0 71.1051 0.895 72.0001 2 72.0001H78C79.105 72.0001 80 71.1051 80 70.0001V66.0001C80 64.8951 79.105 64.0001 78 64.0001ZM5.60125 33.7076L16.6938 43.7076C17.6039 44.5294 18.6945 45.1259 19.8775 45.4488L55.8275 55.2426C59.1375 56.1438 62.6475 56.3326 65.9525 55.4126C69.6612 54.3788 71.3825 52.7613 71.8587 50.9488C72.3375 49.1363 71.6425 46.8601 68.9375 44.0788C66.5275 41.6013 63.3938 39.9801 60.0838 39.0788L47.895 35.7588L35.35 11.7776C35.1612 11.0513 34.6063 10.4838 33.8925 10.2888L25.7563 8.0726C24.4363 7.7126 23.1437 8.7376 23.1675 10.1276L29.1575 30.6538L16.3825 27.1738L12.9338 18.6888C12.6925 18.0776 12.1825 17.6176 11.5562 17.4476L6.59 16.0938C5.2975 15.7413 4.02375 16.7188 4 18.0788L4.02875 30.8013C4.0525 31.9151 4.7825 32.9688 5.60125 33.7076Z" fill="#F9FCFF"/>
</g>
<defs>
<clipPath id="clip0_997_527">
<rect width="80" height="80" fill="white"/>
</clipPath>
<clipPath id="clip1_997_527">
<rect width="28" height="28" fill="white" transform="translate(52)"/>
</clipPath>
</defs>
</svg>
