<svg width="22" height="22" viewBox="0 0 22 22" fill="none" xmlns="http://www.w3.org/2000/svg">
<g clip-path="url(#clip0_1021_678)">
<path d="M17.6341 6.54328C17.3059 5.97483 16.7109 5.6637 16.0987 5.66174L13.9755 1.98426C13.854 1.77377 13.363 1.31116 12.7611 1.65866C12.5899 1.75755 12.4528 1.913 12.378 2.10504L11.2774 4.92256C10.7241 6.33703 9.69543 7.53425 8.38052 8.29342L3.76171 10.9601C2.91133 11.4511 2.62003 12.5382 3.111 13.3886L4.44434 15.698C4.93531 16.5484 6.02244 16.8397 6.87283 16.3487L7.68352 15.8806C7.79564 16.152 7.92469 16.4195 8.07552 16.6807C8.62788 17.6374 9.37259 18.4129 10.2312 18.9945C10.5046 19.1796 10.8656 19.1755 11.1514 19.0105L12.9383 17.9788C13.5649 17.617 13.5267 16.6819 12.8591 16.4028C12.1657 16.1129 11.5584 15.6026 11.1545 14.9031C11.0002 14.6358 10.8908 14.3564 10.8161 14.072L11.4916 13.682C12.8065 12.9229 14.3577 12.6306 15.8591 12.8589L18.8494 13.3144C19.0489 13.3448 19.2527 13.3065 19.4276 13.2058C20.027 12.8597 19.881 12.2134 19.7529 11.9916L17.6297 8.31408C17.9342 7.78258 17.9623 7.11173 17.6341 6.54328ZM17.2888 11.2786L16.1266 11.1016C14.2275 10.8124 12.2655 11.1824 10.6027 12.1424L9.26941 9.83302C10.9322 8.87302 12.2336 7.35888 12.9327 5.56965L13.3605 4.47457L17.2888 11.2786Z" fill="#F9FCFF"/>
</g>
<defs>
<clipPath id="clip0_1021_678">
<rect width="16" height="16" fill="white" transform="translate(0 8) rotate(-30)"/>
</clipPath>
</defs>
</svg>
