<svg width="80" height="80" viewBox="0 0 80 80" fill="none" xmlns="http://www.w3.org/2000/svg">
<g clip-path="url(#clip0_997_599)">
<path d="M78.1234 37.5H68.7687L66.1687 31C63.4968 24.3172 57.1202 20 49.9218 20H30.078C22.8812 20 16.503 24.3172 13.8296 31L11.2296 37.5H1.87648C0.65617 37.5 -0.239142 38.6469 0.0577325 39.8297L0.995233 43.5797C1.20305 44.4141 1.95304 45 2.81398 45H5.94992C3.85148 46.8328 2.49992 49.4969 2.49992 52.5V60C2.49992 62.5188 3.46242 64.7922 4.99992 66.5516V75C4.99992 77.7609 7.23898 80 9.99992 80H14.9999C17.7609 80 19.9999 77.7609 19.9999 75V70H59.9999V75C59.9999 77.7609 62.239 80 64.9999 80H69.9999C72.7609 80 74.9999 77.7609 74.9999 75V66.5516C76.5374 64.7937 77.4999 62.5203 77.4999 60V52.5C77.4999 49.4969 76.1484 46.8328 74.0515 45H77.1874C78.0484 45 78.7984 44.4141 79.0062 43.5797L79.9437 39.8297C80.239 38.6469 79.3437 37.5 78.1234 37.5ZM23.114 34.7141C24.253 31.8672 27.0109 30 30.078 30H49.9218C52.989 30 55.7468 31.8672 56.8859 34.7141L59.9999 42.5H19.9999L23.114 34.7141ZM14.9999 59.9688C11.9999 59.9688 9.99992 57.975 9.99992 54.9844C9.99992 51.9938 11.9999 50 14.9999 50C17.9999 50 22.4999 54.4859 22.4999 57.4766C22.4999 60.4672 17.9999 59.9688 14.9999 59.9688ZM64.9999 59.9688C61.9999 59.9688 57.4999 60.4672 57.4999 57.4766C57.4999 54.4859 61.9999 50 64.9999 50C67.9999 50 69.9999 51.9938 69.9999 54.9844C69.9999 57.975 67.9999 59.9688 64.9999 59.9688Z" fill="#081F5C"/>
<path d="M76.25 1.5H59.75C58.5078 1.5 57.5 2.50781 57.5 3.75V20.25C57.5 21.4922 58.5078 22.5 59.75 22.5H76.25C77.4922 22.5 78.5 21.4922 78.5 20.25V3.75C78.5 2.50781 77.4922 1.5 76.25 1.5ZM68.75 15H66.5V17.25C66.5 17.6625 66.1625 18 65.75 18H64.25C63.8375 18 63.5 17.6625 63.5 17.25V6.75C63.5 6.3375 63.8375 6 64.25 6H68.75C71.2297 6 73.25 8.02031 73.25 10.5C73.25 12.9797 71.2297 15 68.75 15ZM68.75 9H66.5V12H68.75C69.575 12 70.25 11.325 70.25 10.5C70.25 9.675 69.575 9 68.75 9Z" fill="#081F5C"/>
</g>
<defs>
<clipPath id="clip0_997_599">
<rect width="80" height="80" fill="white"/>
</clipPath>
</defs>
</svg>
