<svg width="80" height="80" viewBox="0 0 80 80" fill="none" xmlns="http://www.w3.org/2000/svg">
<g clip-path="url(#clip0_998_682)">
<g clip-path="url(#clip1_998_682)">
<path d="M42.5 0H7.5C3.35938 0 0 3.35938 0 7.5V72.5C0 76.6406 3.35938 80 7.5 80H42.5C46.6406 80 50 76.6406 50 72.5V7.5C50 3.35938 46.6406 0 42.5 0ZM25 75C22.2344 75 20 72.7656 20 70C20 67.2344 22.2344 65 25 65C27.7656 65 30 67.2344 30 70C30 72.7656 27.7656 75 25 75ZM42.5 58.125C42.5 59.1562 41.6562 60 40.625 60H9.375C8.34375 60 7.5 59.1562 7.5 58.125V9.375C7.5 8.34375 8.34375 7.5 9.375 7.5H40.625C41.6562 7.5 42.5 8.34375 42.5 9.375V58.125Z" fill="white"/>
<g clip-path="url(#clip2_998_682)">
<path d="M15.25 34C15.25 28.6141 19.6141 24.25 25 24.25C27.9578 24.25 30.6062 25.5672 32.3969 27.6484C32.8 28.1219 33.5125 28.1734 33.9813 27.7703C34.45 27.3672 34.5063 26.6547 34.1031 26.1859C31.9047 23.6219 28.6422 22 25 22C18.3719 22 13 27.3719 13 34V35.875C13 36.4984 13.5016 37 14.125 37C14.7484 37 15.25 36.4984 15.25 35.875V34ZM36.7422 31.5203C36.6156 30.9109 36.0156 30.5219 35.4109 30.6531C34.8063 30.7844 34.4125 31.3797 34.5438 31.9844C34.6797 32.6359 34.7547 33.3109 34.7547 34.0047V35.8797C34.7547 36.5031 35.2563 37.0047 35.8797 37.0047C36.5031 37.0047 37.0047 36.5031 37.0047 35.8797V34.0047C37.0047 33.1563 36.9156 32.3266 36.7469 31.525L36.7422 31.5203ZM25 25.75C24.1094 25.75 23.2469 25.8906 22.4453 26.1531C21.7328 26.3875 21.5687 27.2641 22.0562 27.8359C22.3891 28.225 22.9375 28.3422 23.4344 28.2062C23.9313 28.0703 24.4562 28 25 28C28.3141 28 31 30.6859 31 34V35.1672C31 36.3484 30.9297 37.525 30.7938 38.6969C30.7141 39.3813 31.2344 40 31.9281 40C32.4812 40 32.9547 39.5969 33.0203 39.0484C33.175 37.7641 33.2547 36.4703 33.2547 35.1719V34.0047C33.2547 29.4484 29.5609 25.7547 25.0047 25.7547L25 25.75ZM20.0641 28.9703C19.6375 28.4734 18.8781 28.4359 18.475 28.9516C17.3922 30.3438 16.75 32.0969 16.75 34V35.1672C16.75 36.3016 16.6281 37.4359 16.3844 38.5375C16.225 39.2687 16.7547 40 17.5047 40C17.9969 40 18.4375 39.6719 18.5453 39.1891C18.8453 37.8719 19 36.5266 19 35.1672V34C19 32.725 19.3984 31.5437 20.0734 30.5734C20.4109 30.0859 20.4484 29.4203 20.0641 28.9703ZM25 29.5C22.5156 29.5 20.5 31.5156 20.5 34V35.1672C20.5 36.85 20.2844 38.5188 19.8531 40.1406C19.675 40.8109 20.1672 41.5 20.8609 41.5C21.3062 41.5 21.7 41.2094 21.8172 40.7781C22.3094 38.95 22.5625 37.0656 22.5625 35.1672V34C22.5625 32.6547 23.6547 31.5625 25 31.5625C26.3453 31.5625 27.4375 32.6547 27.4375 34V35.1672C27.4375 36.8687 27.2734 38.5609 26.95 40.225C26.8234 40.8766 27.3109 41.5 27.9719 41.5C28.45 41.5 28.8625 41.1719 28.9562 40.7031C29.3172 38.8844 29.5 37.0328 29.5 35.1672V34C29.5 31.5156 27.4844 29.5 25 29.5ZM26.125 34C26.125 33.3766 25.6234 32.875 25 32.875C24.3766 32.875 23.875 33.3766 23.875 34V35.1672C23.875 37.975 23.3594 40.7594 22.3516 43.3797L22.075 44.0969C21.85 44.6781 22.1406 45.3297 22.7219 45.55C23.3031 45.7703 23.9547 45.4844 24.175 44.9031L24.4516 44.1859C25.5578 41.3078 26.125 38.2516 26.125 35.1672V34Z" fill="white"/>
</g>
<g clip-path="url(#clip3_998_682)">
<path d="M79.625 12C79.625 18.4203 74.4203 23.625 68 23.625C61.5797 23.625 56.375 18.4203 56.375 12C56.375 5.57967 61.5797 0.375 68 0.375C74.4203 0.375 79.625 5.57967 79.625 12ZM66.6553 18.1553L75.2803 9.53034C75.5732 9.23747 75.5732 8.76258 75.2803 8.4697L74.2197 7.40906C73.9268 7.11614 73.4519 7.11614 73.159 7.40906L66.125 14.443L62.841 11.159C62.5481 10.8661 62.0732 10.8661 61.7803 11.159L60.7197 12.2197C60.4268 12.5125 60.4268 12.9874 60.7197 13.2803L65.5947 18.1553C65.8876 18.4482 66.3624 18.4482 66.6553 18.1553Z" fill="white"/>
</g>
</g>
</g>
<defs>
<clipPath id="clip0_998_682">
<rect width="80" height="80" fill="white"/>
</clipPath>
<clipPath id="clip1_998_682">
<rect width="80" height="80" fill="white"/>
</clipPath>
<clipPath id="clip2_998_682">
<rect width="24" height="24" fill="white" transform="translate(13 22)"/>
</clipPath>
<clipPath id="clip3_998_682">
<rect width="24" height="24" fill="white" transform="translate(56)"/>
</clipPath>
</defs>
</svg>
