<svg width="80" height="80" viewBox="0 0 80 80" fill="none" xmlns="http://www.w3.org/2000/svg">
<g clip-path="url(#clip0_997_516)">
<g clip-path="url(#clip1_997_516)">
<path d="M78.1234 37.5H68.7687L66.1687 31C63.4968 24.3172 57.1202 20 49.9218 20H30.078C22.8812 20 16.503 24.3172 13.8296 31L11.2296 37.5H1.87648C0.65617 37.5 -0.239142 38.6469 0.0577325 39.8297L0.995233 43.5797C1.20305 44.4141 1.95304 45 2.81398 45H5.94992C3.85148 46.8328 2.49992 49.4969 2.49992 52.5V60C2.49992 62.5188 3.46242 64.7922 4.99992 66.5516V75C4.99992 77.7609 7.23898 80 9.99992 80H14.9999C17.7609 80 19.9999 77.7609 19.9999 75V70H59.9999V75C59.9999 77.7609 62.239 80 64.9999 80H69.9999C72.7609 80 74.9999 77.7609 74.9999 75V66.5516C76.5374 64.7937 77.4999 62.5203 77.4999 60V52.5C77.4999 49.4969 76.1484 46.8328 74.0515 45H77.1874C78.0484 45 78.7984 44.4141 79.0062 43.5797L79.9437 39.8297C80.239 38.6469 79.3437 37.5 78.1234 37.5ZM23.114 34.7141C24.253 31.8672 27.0109 30 30.078 30H49.9218C52.989 30 55.7468 31.8672 56.8859 34.7141L59.9999 42.5H19.9999L23.114 34.7141ZM14.9999 59.9687C11.9999 59.9687 9.99992 57.975 9.99992 54.9844C9.99992 51.9937 11.9999 50 14.9999 50C17.9999 50 22.4999 54.4859 22.4999 57.4766C22.4999 60.4672 17.9999 59.9687 14.9999 59.9687ZM64.9999 59.9687C61.9999 59.9687 57.4999 60.4672 57.4999 57.4766C57.4999 54.4859 61.9999 50 64.9999 50C67.9999 50 69.9999 51.9937 69.9999 54.9844C69.9999 57.975 67.9999 59.9687 64.9999 59.9687Z" fill="#F9FCFF"/>
<circle cx="68" cy="12" r="12" fill="#F9FCFF"/>
<path d="M69.5282 11.4703L66.997 10.7297C66.704 10.6453 66.5001 10.3711 66.5001 10.0664C66.5001 9.68438 66.8095 9.375 67.1915 9.375H68.7454C69.0314 9.375 69.3126 9.46172 69.547 9.62109C69.69 9.71719 69.8822 9.69375 70.004 9.57422L70.8197 8.77734C70.9861 8.61562 70.9626 8.34609 70.7775 8.20312C70.2032 7.75312 69.4861 7.50234 68.7501 7.5V6.375C68.7501 6.16875 68.5814 6 68.3751 6H67.6251C67.4189 6 67.2501 6.16875 67.2501 6.375V7.5H67.1915C65.6986 7.5 64.4986 8.78203 64.6368 10.3031C64.7353 11.3836 65.5603 12.2625 66.6009 12.5672L69.0032 13.2703C69.2962 13.357 69.5001 13.6289 69.5001 13.9336C69.5001 14.3156 69.1907 14.625 68.8087 14.625H67.2548C66.9689 14.625 66.6876 14.5383 66.4532 14.3789C66.3103 14.2828 66.1181 14.3063 65.9962 14.4258L65.1806 15.2227C65.0142 15.3844 65.0376 15.6539 65.2228 15.7969C65.797 16.2469 66.5142 16.4977 67.2501 16.5V17.625C67.2501 17.8313 67.4189 18 67.6251 18H68.3751C68.5814 18 68.7501 17.8313 68.7501 17.625V16.4953C69.8423 16.4742 70.8665 15.825 71.2275 14.7914C71.7314 13.3477 70.8853 11.8664 69.5282 11.4703Z" fill="#334EAC"/>
</g>
</g>
<defs>
<clipPath id="clip0_997_516">
<rect width="80" height="80" fill="white"/>
</clipPath>
<clipPath id="clip1_997_516">
<rect width="80" height="80" fill="white"/>
</clipPath>
</defs>
</svg>
