<svg width="80" height="80" viewBox="0 0 80 80" fill="none" xmlns="http://www.w3.org/2000/svg">
<path d="M5 68.3999C5 71.1655 7.23437 73.3999 10 73.3999H35V48.3999H5V68.3999ZM45 73.3999H70C72.7656 73.3999 75 71.1655 75 68.3999V48.3999H45V73.3999ZM75 23.3999H68.4219C69.3906 21.5093 70 19.4155 70 17.1499C70 9.57178 63.8281 3.3999 56.25 3.3999C49.75 3.3999 45.5469 6.72803 40.1562 14.0718C34.7656 6.72803 30.5625 3.3999 24.0625 3.3999C16.4844 3.3999 10.3125 9.57178 10.3125 17.1499C10.3125 19.4155 10.9062 21.5093 11.8906 23.3999H5C2.23437 23.3999 0 25.6343 0 28.3999V40.8999C0 42.2749 1.125 43.3999 2.5 43.3999H77.5C78.875 43.3999 80 42.2749 80 40.8999V28.3999C80 25.6343 77.7656 23.3999 75 23.3999ZM24.0469 23.3999C20.5937 23.3999 17.7969 20.603 17.7969 17.1499C17.7969 13.6968 20.5937 10.8999 24.0469 10.8999C27.1562 10.8999 29.4531 11.4155 37.5 23.3999H24.0469ZM56.25 23.3999H42.7969C50.8281 11.4468 53.0625 10.8999 56.25 10.8999C59.7031 10.8999 62.5 13.6968 62.5 17.1499C62.5 20.603 59.7031 23.3999 56.25 23.3999Z" fill="#F9FCFF"/>
</svg>
