<svg width="80" height="80" viewBox="0 0 80 80" fill="none" xmlns="http://www.w3.org/2000/svg">
<g clip-path="url(#clip0_997_643)">
<path d="M76.25 20H75V12.5C75 5.5 59.5 0 40 0C20.5 0 5 5.5 5 12.5V20H3.75C1.67969 20 0 21.6781 0 23.75V36.25C0 38.3203 1.67969 40 3.75 40H5V65C5 67.7609 7.23906 70 10 70V75C10 77.7609 12.2391 80 15 80H20C22.7609 80 25 77.7609 25 75V70H55V75C55 77.7609 57.2391 80 60 80H65C67.7609 80 70 77.7609 70 75V70H71C73.5 70 75 68 75 66V40H76.25C78.3203 40 80 38.3203 80 36.25V23.75C80 21.6781 78.3203 20 76.25 20ZM25 11.25C25 10.5594 25.5594 10 26.25 10H53.75C54.4406 10 55 10.5594 55 11.25V13.75C55 14.4406 54.4406 15 53.75 15H26.25C25.5594 15 25 14.4406 25 13.75V11.25ZM17.5 62.5C14.7391 62.5 12.5 60.2609 12.5 57.5C12.5 54.7391 14.7391 52.5 17.5 52.5C20.2609 52.5 22.5 54.7391 22.5 57.5C22.5 60.2609 20.2609 62.5 17.5 62.5ZM37.5 45H20C17.2391 45 15 42.7609 15 40V25C15 22.2391 17.2391 20 20 20H37.5V45ZM42.5 45V20H60C62.7609 20 65 22.2391 65 25V40C65 42.7609 62.7609 45 60 45H42.5ZM62.5 62.5C59.7391 62.5 57.5 60.2609 57.5 57.5C57.5 54.7391 59.7391 52.5 62.5 52.5C65.2609 52.5 67.5 54.7391 67.5 57.5C67.5 60.2609 65.2609 62.5 62.5 62.5Z" fill="#081F5C"/>
</g>
<defs>
<clipPath id="clip0_997_643">
<rect width="80" height="80" fill="white"/>
</clipPath>
</defs>
</svg>
