<svg width="80" height="80" viewBox="0 0 80 80" fill="none" xmlns="http://www.w3.org/2000/svg">
<g clip-path="url(#clip0_997_634)">
<path d="M78.1234 37.5H68.7687L66.1687 31C63.4968 24.3172 57.1202 20 49.9218 20H30.078C22.8812 20 16.503 24.3172 13.8296 31L11.2296 37.5H1.87648C0.65617 37.5 -0.239142 38.6469 0.0577325 39.8297L0.995233 43.5797C1.20305 44.4141 1.95304 45 2.81398 45H5.94992C3.85148 46.8328 2.49992 49.4969 2.49992 52.5V60C2.49992 62.5188 3.46242 64.7922 4.99992 66.5516V75C4.99992 77.7609 7.23898 80 9.99992 80H14.9999C17.7609 80 19.9999 77.7609 19.9999 75V70H59.9999V75C59.9999 77.7609 62.239 80 64.9999 80H69.9999C72.7609 80 74.9999 77.7609 74.9999 75V66.5516C76.5374 64.7937 77.4999 62.5203 77.4999 60V52.5C77.4999 49.4969 76.1484 46.8328 74.0515 45H77.1874C78.0484 45 78.7984 44.4141 79.0062 43.5797L79.9437 39.8297C80.239 38.6469 79.3437 37.5 78.1234 37.5ZM23.114 34.7141C24.253 31.8672 27.0109 30 30.078 30H49.9218C52.989 30 55.7468 31.8672 56.8859 34.7141L59.9999 42.5H19.9999L23.114 34.7141ZM14.9999 59.9687C11.9999 59.9687 9.99992 57.975 9.99992 54.9844C9.99992 51.9937 11.9999 50 14.9999 50C17.9999 50 22.4999 54.4859 22.4999 57.4766C22.4999 60.4672 17.9999 59.9687 14.9999 59.9687ZM64.9999 59.9687C61.9999 59.9687 57.4999 60.4672 57.4999 57.4766C57.4999 54.4859 61.9999 50 64.9999 50C67.9999 50 69.9999 51.9937 69.9999 54.9844C69.9999 57.975 67.9999 59.9687 64.9999 59.9687Z" fill="#081F5C"/>
<g clip-path="url(#clip1_997_634)">
<path d="M68 0.375C61.5781 0.375 56.375 5.57812 56.375 12C56.375 18.4219 61.5781 23.625 68 23.625C74.4219 23.625 79.625 18.4219 79.625 12C79.625 5.57812 74.4219 0.375 68 0.375ZM70.6766 16.7859L66.5422 13.7812C66.3969 13.6734 66.3125 13.5047 66.3125 13.3266V5.4375C66.3125 5.12813 66.5656 4.875 66.875 4.875H69.125C69.4344 4.875 69.6875 5.12813 69.6875 5.4375V11.8922L72.6641 14.0578C72.9172 14.2406 72.9688 14.5922 72.7859 14.8453L71.4641 16.6641C71.2812 16.9125 70.9297 16.9688 70.6766 16.7859Z" fill="#081F5C"/>
</g>
</g>
<defs>
<clipPath id="clip0_997_634">
<rect width="80" height="80" fill="white"/>
</clipPath>
<clipPath id="clip1_997_634">
<rect width="24" height="24" fill="white" transform="translate(56)"/>
</clipPath>
</defs>
</svg>
