<svg width="80" height="80" viewBox="0 0 80 80" fill="none" xmlns="http://www.w3.org/2000/svg">
<g clip-path="url(#clip0_997_657)">
<path d="M40.0001 5C42.2188 5 44.2657 6.17187 45.3907 8.09375L79.1407 65.5937C80.2813 67.5312 80.2813 69.9219 79.172 71.8594C78.0626 73.7969 75.9845 75 73.7501 75H6.25009C4.01572 75 1.93759 73.7969 0.828217 71.8594C-0.281158 69.9219 -0.265533 67.5156 0.859467 65.5937L34.6095 8.09375C35.7345 6.17187 37.7813 5 40.0001 5ZM40.0001 25C37.922 25 36.2501 26.6719 36.2501 28.75V46.25C36.2501 48.3281 37.922 50 40.0001 50C42.0782 50 43.7501 48.3281 43.7501 46.25V28.75C43.7501 26.6719 42.0782 25 40.0001 25ZM45.0001 60C45.0001 58.6739 44.4733 57.4021 43.5356 56.4645C42.5979 55.5268 41.3262 55 40.0001 55C38.674 55 37.4022 55.5268 36.4646 56.4645C35.5269 57.4021 35.0001 58.6739 35.0001 60C35.0001 61.3261 35.5269 62.5979 36.4646 63.5355C37.4022 64.4732 38.674 65 40.0001 65C41.3262 65 42.5979 64.4732 43.5356 63.5355C44.4733 62.5979 45.0001 61.3261 45.0001 60Z" fill="#081F5C"/>
</g>
<defs>
<clipPath id="clip0_997_657">
<rect width="80" height="80" fill="white"/>
</clipPath>
</defs>
</svg>
