<svg width="80" height="80" viewBox="0 0 80 80" fill="none" xmlns="http://www.w3.org/2000/svg">
<g clip-path="url(#clip0_997_488)">
<path d="M46.5002 7.5C46.5002 6.51509 46.3062 5.53982 45.9293 4.62987C45.5524 3.71993 44.9999 2.89314 44.3035 2.1967C43.607 1.50026 42.7803 0.947814 41.8703 0.570903C40.9604 0.193993 39.9851 0 39.0002 0C38.0153 0 37.04 0.193993 36.1301 0.570903C35.2201 0.947814 34.3933 1.50026 33.6969 2.1967C33.0004 2.89314 32.448 3.71993 32.0711 4.62987C31.6942 5.53982 31.5002 6.51509 31.5002 7.5C31.5002 8.48491 31.6942 9.46018 32.0711 10.3701C32.448 11.2801 33.0004 12.1069 33.6969 12.8033C34.3933 13.4997 35.2201 14.0522 36.1301 14.4291C37.04 14.806 38.0153 15 39.0002 15C39.9851 15 40.9604 14.806 41.8703 14.4291C42.7803 14.0522 43.607 13.4997 44.3035 12.8033C44.9999 12.1069 45.5524 11.2801 45.9293 10.3701C46.3062 9.46018 46.5002 8.48491 46.5002 7.5ZM45.2502 36.7656L52.6564 45.6875C54.4221 47.8125 57.5783 48.1094 59.7033 46.3438C61.8283 44.5781 62.1252 41.4219 60.3596 39.2969L48.8439 25.4063C46.0002 21.9688 41.7658 19.9844 37.2971 19.9844H31.6877C26.4221 19.9844 21.5471 22.75 18.8283 27.2656L9.71893 42.4219C8.29706 44.7813 9.06268 47.8594 11.4221 49.2812C13.7814 50.7031 16.8596 49.9375 18.2814 47.5781L22.7502 40.1406V75C22.7502 77.7656 24.9846 80 27.7502 80C30.5158 80 32.7502 77.7656 32.7502 75V55H35.2502V75C35.2502 77.7656 37.4846 80 40.2502 80C43.0158 80 45.2502 77.7656 45.2502 75V36.7656ZM59.0002 58.75C59.0002 58.0625 59.5627 57.5 60.2502 57.5C60.9377 57.5 61.5002 58.0625 61.5002 58.75V76.25C61.5002 78.3281 63.1721 80 65.2502 80C67.3283 80 69.0002 78.3281 69.0002 76.25V58.75C69.0002 53.9219 65.0783 50 60.2502 50C55.4221 50 51.5002 53.9219 51.5002 58.75V60C51.5002 62.0781 53.1721 63.75 55.2502 63.75C57.3283 63.75 59.0002 62.0781 59.0002 60V58.75Z" fill="#F9FCFF"/>
</g>
<defs>
<clipPath id="clip0_997_488">
<rect width="70" height="80" fill="white" transform="translate(4)"/>
</clipPath>
</defs>
</svg>
