<svg width="80" height="80" viewBox="0 0 80 80" fill="none" xmlns="http://www.w3.org/2000/svg">
<path d="M75 15V55C75 63.0961 65.3712 70 54.6841 70L64.5247 77.7689C65.4539 78.5027 64.9316 80 63.75 80H16.25C15.0659 80 14.5481 78.5009 15.4755 77.7689L25.3159 70C14.6594 70 5 63.1178 5 55V15C5 6.71578 15 0 25 0H55C65.1562 0 75 6.71578 75 15ZM36.25 36.25V18.75C36.25 16.6789 34.5711 15 32.5 15H16.25C14.1789 15 12.5 16.6789 12.5 18.75V36.25C12.5 38.3211 14.1789 40 16.25 40H32.5C34.5711 40 36.25 38.3211 36.25 36.25ZM67.5 36.25V18.75C67.5 16.6789 65.8211 15 63.75 15H47.5C45.4289 15 43.75 16.6789 43.75 18.75V36.25C43.75 38.3211 45.4289 40 47.5 40H63.75C65.8211 40 67.5 38.3211 67.5 36.25ZM60 45C55.8578 45 52.5 48.3578 52.5 52.5C52.5 56.6422 55.8578 60 60 60C64.1422 60 67.5 56.6422 67.5 52.5C67.5 48.3578 64.1422 45 60 45ZM20 45C15.8578 45 12.5 48.3578 12.5 52.5C12.5 56.6422 15.8578 60 20 60C24.1422 60 27.5 56.6422 27.5 52.5C27.5 48.3578 24.1422 45 20 45Z" fill="#081F5C"/>
</svg>
