<svg width="80" height="80" viewBox="0 0 80 80" fill="none" xmlns="http://www.w3.org/2000/svg">
<path d="M60 25V20C60 8.97187 51.028 0 40 0C28.9719 0 20 8.97187 20 20V25H5V67.5C5 74.4036 10.5964 80 17.5 80H62.5C69.4036 80 75 74.4036 75 67.5V25H60ZM30 20C30 14.4859 34.4859 10 40 10C45.5141 10 50 14.4859 50 20V25H30V20ZM55 38.75C52.9289 38.75 51.25 37.0711 51.25 35C51.25 32.9289 52.9289 31.25 55 31.25C57.0711 31.25 58.75 32.9289 58.75 35C58.75 37.0711 57.0711 38.75 55 38.75ZM25 38.75C22.9289 38.75 21.25 37.0711 21.25 35C21.25 32.9289 22.9289 31.25 25 31.25C27.0711 31.25 28.75 32.9289 28.75 35C28.75 37.0711 27.0711 38.75 25 38.75Z" fill="white"/>
</svg>
