<svg width="80" height="80" viewBox="0 0 80 80" fill="none" xmlns="http://www.w3.org/2000/svg">
<g clip-path="url(#clip0_997_500)">
<path d="M77.5158 60.2608L79.7388 64.7394C80.3527 65.9761 79.8477 67.4762 78.6109 68.0902L68.382 73.2286C65.8744 74.4734 62.8264 73.4152 61.6337 70.8762L51.8248 50H30C27.5117 50 25.4022 48.1703 25.0502 45.707C19.7552 8.64187 20.0594 10.9444 20 9.99999C20 4.31906 24.7372 -0.255475 30.4769 0.0110874C35.6755 0.252494 39.8594 4.52749 39.9964 9.72999C40.132 14.8758 36.3789 19.1711 31.4639 19.8923L32.1936 25.0002H52.5C53.8808 25.0002 55 26.1194 55 27.5002V32.5002C55 33.8809 53.8808 35.0002 52.5 35.0002H33.6222L34.3366 40.0002H55C55.9493 40.0002 56.879 40.2704 57.6803 40.7793C58.4817 41.2882 59.1216 42.0147 59.5253 42.8739L68.512 62L74.1648 59.133C75.4016 58.5191 76.9019 59.0241 77.5158 60.2608ZM48.6497 55H44.8206C43.6037 63.4694 36.3006 70 27.5 70C17.8505 70 10 62.1495 10 52.5C10 46.0148 13.5459 40.3423 18.8006 37.3194C18.2206 33.2623 17.7312 29.8412 17.3181 26.9548C7.18063 31.01 0 40.9317 0 52.5C0 67.6636 12.3364 80 27.5 80C38.7297 80 48.4072 73.2331 52.6734 63.5637L48.6497 55Z" fill="#F9FCFF"/>
</g>
<defs>
<clipPath id="clip0_997_500">
<rect width="80" height="80" fill="white"/>
</clipPath>
</defs>
</svg>
