<svg width="80" height="80" viewBox="0 0 80 80" fill="none" xmlns="http://www.w3.org/2000/svg">
<path d="M28 46.3999H32V18.3999H28C25.7912 18.3999 24 20.1912 24 22.3999V42.3999C24 44.6087 25.7912 46.3999 28 46.3999ZM72 42.3999V22.3999C72 20.1912 70.2088 18.3999 68 18.3999H64V46.3999H68C70.2088 46.3999 72 44.6087 72 42.3999ZM78 54.3999H16V8.3999C16 7.2949 15.105 6.3999 14 6.3999H2C0.895 6.3999 0 7.2949 0 8.3999V12.3999C0 13.5049 0.895 14.3999 2 14.3999H8V60.3999C8 61.5049 8.895 62.3999 10 62.3999H20.3675C20.1438 63.0287 20 63.6949 20 64.3999C20 67.7137 22.6862 70.3999 26 70.3999C29.3138 70.3999 32 67.7137 32 64.3999C32 63.6949 31.8562 63.0287 31.6325 62.3999H56.3675C56.1438 63.0287 56 63.6949 56 64.3999C56 67.7137 58.6862 70.3999 62 70.3999C65.3138 70.3999 68 67.7137 68 64.3999C68 63.6949 67.8562 63.0287 67.6325 62.3999H78C79.105 62.3999 80 61.5049 80 60.3999V56.3999C80 55.2949 79.105 54.3999 78 54.3999ZM60 18.3999V12.3999C60 9.08615 57.3138 6.3999 54 6.3999H42C38.6862 6.3999 36 9.08615 36 12.3999V46.3999H60V18.3999ZM54 18.3999H42V12.3999H54V18.3999Z" fill="#F9FCFF"/>
</svg>
