<svg width="80" height="80" viewBox="0 0 80 80" fill="none" xmlns="http://www.w3.org/2000/svg">
<g clip-path="url(#clip0_997_557)">
<g clip-path="url(#clip1_997_557)">
<g clip-path="url(#clip2_997_557)">
<path d="M79.6719 20.7516L74.9984 16.0781C74.7875 15.8672 74.5016 15.75 74.2016 15.75H73.4375C74.7313 14.0953 75.5 12.0141 75.5 9.75C75.5 4.36406 71.1359 0 65.75 0C60.3641 0 56 4.36406 56 9.75C56 15.1359 60.3641 19.5 65.75 19.5C68.0141 19.5 70.0953 18.7313 71.75 17.4375V18.2016C71.75 18.5016 71.8672 18.7875 72.0781 18.9984L76.7516 23.6719C77.1922 24.1125 77.9047 24.1125 78.3406 23.6719L79.6672 22.3453C80.1078 21.9047 80.1078 21.1922 79.6719 20.7516ZM65.75 15.75C62.4359 15.75 59.75 13.0688 59.75 9.75C59.75 6.43594 62.4312 3.75 65.75 3.75C69.0641 3.75 71.75 6.43125 71.75 9.75C71.75 13.0641 69.0688 15.75 65.75 15.75Z" fill="white"/>
</g>
<path d="M62.5 25H17.5C13.3578 25 10 28.3578 10 32.5V67.5C10 71.6422 13.3578 75 17.5 75H20V77.5C20 78.8813 21.1187 80 22.5 80H27.5C28.8813 80 30 78.8813 30 77.5V75H50V77.5C50 78.8813 51.1187 80 52.5 80H57.5C58.8813 80 60 78.8813 60 77.5V75H62.5C66.6422 75 70 71.6422 70 67.5V32.5C70 28.3578 66.6422 25 62.5 25ZM60 58.75C60 59.4406 59.4406 60 58.75 60H21.25C20.5594 60 20 59.4406 20 58.75V56.25C20 55.5594 20.5594 55 21.25 55H58.75C59.4406 55 60 55.5594 60 56.25V58.75ZM60 43.75C60 44.4406 59.4406 45 58.75 45H21.25C20.5594 45 20 44.4406 20 43.75V41.25C20 40.5594 20.5594 40 21.25 40H58.75C59.4406 40 60 40.5594 60 41.25V43.75ZM32.5 7.5H47.5V20H55V7.5C55 3.35781 51.6422 0 47.5 0H32.5C28.3578 0 25 3.35781 25 7.5V20H32.5V7.5Z" fill="white"/>
</g>
</g>
<defs>
<clipPath id="clip0_997_557">
<rect width="80" height="80" fill="white"/>
</clipPath>
<clipPath id="clip1_997_557">
<rect width="80" height="80" fill="white"/>
</clipPath>
<clipPath id="clip2_997_557">
<rect width="24" height="24" fill="white" transform="translate(56)"/>
</clipPath>
</defs>
</svg>
