<svg width="80" height="80" viewBox="0 0 80 80" fill="none" xmlns="http://www.w3.org/2000/svg">
<path d="M30.075 32.2626C30.3125 28.4126 32.2375 24.6126 35.575 22.2876C34.925 20.9376 33.5875 20.0001 32 20.0001H28.325L32.1625 17.2501C33.0625 16.6126 33.275 15.3626 32.625 14.4626L31.4625 12.8376C30.825 11.9376 29.575 11.7251 28.675 12.3751L24.675 15.2376L26.1125 11.4126C26.5 10.3751 25.975 9.2251 24.9375 8.8376L23.0625 8.1376C22.025 7.7501 20.875 8.2751 20.4875 9.3126L18 15.9376L15.5125 9.3001C15.125 8.2626 13.975 7.7376 12.9375 8.1251L11.0625 8.8251C10.025 9.2126 9.5 10.3751 9.9 11.4001L11.3375 15.2251L7.325 12.3751C6.425 11.7376 5.175 11.9376 4.5375 12.8376L3.375 14.4626C2.7375 15.3626 2.9375 16.6126 3.8375 17.2501L7.675 20.0001H4C1.7875 20.0001 0 21.7876 0 24.0001V68.0001C0 70.2126 1.7875 72.0001 4 72.0001H25.1125C24.425 70.8126 24 69.4626 24 68.0001V40.0001C24 36.2626 26.6 33.1251 30.075 32.2626ZM28 68.0001C28 70.2126 29.7875 72.0001 32 72.0001H52V56.0001H28V68.0001ZM56 72.0001H76C78.2125 72.0001 80 70.2126 80 68.0001V56.0001H56V72.0001ZM76 36.0001H73.45C73.775 35.0501 74 34.0626 74 33.0251C74 28.5876 70.625 24.0001 64.9875 24.0001C58.975 24.0001 55.5 29.9626 54 33.4126C52.4875 29.9626 49.0125 24.0001 43.0125 24.0001C37.375 24.0001 34 28.5876 34 33.0251C34 34.0626 34.2125 35.0501 34.55 36.0001H32C29.7875 36.0001 28 37.7876 28 40.0001V52.0001H52V36.0001H53.9125L54 35.9751L54.0875 36.0001H56V52.0001H80V40.0001C80 37.7876 78.2125 36.0001 76 36.0001ZM42 36.0001C41.6625 35.8251 41.3625 35.6251 41.1 35.4001C40.1875 34.6001 40 33.6751 40 33.0251C40 31.8126 40.8 30.0001 43.0125 30.0001C45.35 30.0001 47.4625 33.4251 48.575 36.0001H42ZM66.9 35.4001C66.6375 35.6251 66.3375 35.8251 66 36.0001H59.425C60.525 33.4626 62.65 30.0001 64.9875 30.0001C67.2 30.0001 68 31.8126 68 33.0251C68 33.6751 67.8125 34.6001 66.9 35.4001Z" fill="#F9FCFF"/>
</svg>
