<svg width="80" height="80" viewBox="0 0 80 80" fill="none" xmlns="http://www.w3.org/2000/svg">
<g clip-path="url(#clip0_997_613)">
<g clip-path="url(#clip1_997_613)">
<path d="M76.25 20H75V12.5C75 5.5 59.5 0 40 0C20.5 0 5 5.5 5 12.5V20H3.75C1.67969 20 0 21.6781 0 23.75V36.25C0 38.3203 1.67969 40 3.75 40H5V65C5 67.7609 7.23906 70 10 70V75C10 77.7609 12.2391 80 15 80H20C22.7609 80 25 77.7609 25 75V70H55V75C55 77.7609 57.2391 80 60 80H65C67.7609 80 70 77.7609 70 75V70H71C73.5 70 75 68 75 66V40H76.25C78.3203 40 80 38.3203 80 36.25V23.75C80 21.6781 78.3203 20 76.25 20ZM17.5 62.5C14.7391 62.5 12.5 60.2609 12.5 57.5C12.5 54.7391 14.7391 52.5 17.5 52.5C20.2609 52.5 22.5 54.7391 22.5 57.5C22.5 60.2609 20.2609 62.5 17.5 62.5ZM20 45C17.2391 45 15 42.7609 15 40V20C15 17.2391 17.2391 15 20 15H60C62.7609 15 65 17.2391 65 20V40C65 42.7609 62.7609 45 60 45H20ZM62.5 62.5C59.7391 62.5 57.5 60.2609 57.5 57.5C57.5 54.7391 59.7391 52.5 62.5 52.5C65.2609 52.5 67.5 54.7391 67.5 57.5C67.5 60.2609 65.2609 62.5 62.5 62.5Z" fill="#081F5C"/>
<path d="M41.063 40C44.1474 40 46.9645 38.5967 48.8308 36.2972C49.1069 35.957 48.8059 35.4601 48.3792 35.5413C43.5275 36.4653 39.0721 32.7454 39.0721 27.8478C39.0721 25.0266 40.5823 22.4324 43.0369 21.0355C43.4152 20.8202 43.3201 20.2466 42.8901 20.1672C42.2874 20.0561 41.6759 20.0001 41.063 20C35.5431 20 31.063 24.4731 31.063 30C31.063 35.5199 35.5361 40 41.063 40Z" fill="#081F5C"/>
</g>
</g>
<defs>
<clipPath id="clip0_997_613">
<rect width="80" height="80" fill="white"/>
</clipPath>
<clipPath id="clip1_997_613">
<rect width="80" height="80" fill="white"/>
</clipPath>
</defs>
</svg>
