<svg width="265" height="47" viewBox="0 0 265 47" fill="none" xmlns="http://www.w3.org/2000/svg">
<path d="M79.8801 21.148L86.5101 9.69H91.0661L84.1641 21.148H79.8801ZM86.4421 34L79.0641 21.148H84.1641L91.4741 34H86.4421ZM77.4321 34V9.69H82.2261V34H77.4321ZM101.682 26.894V23.596H106.476V26.894H101.682ZM91.8223 26.894V23.596H96.6163V26.894H91.8223ZM98.9623 19.72V15.98H99.3023V19.72H98.9623ZM98.9623 34.51V30.77H99.3023V34.51H98.9623ZM91.8223 23.63C91.8223 22.1567 92.1397 20.8533 92.7743 19.72C93.409 18.564 94.259 17.6573 95.3243 17C96.4123 16.32 97.6477 15.98 99.0303 15.98V19.72C98.2597 19.72 97.659 20.06 97.2283 20.74C96.8203 21.42 96.6163 22.3833 96.6163 23.63H91.8223ZM106.476 23.63H101.682C101.682 22.3833 101.467 21.42 101.036 20.74C100.628 20.06 100.039 19.72 99.2683 19.72V15.98C100.651 15.98 101.875 16.32 102.94 17C104.028 17.6573 104.89 18.564 105.524 19.72C106.159 20.8533 106.476 22.1567 106.476 23.63ZM91.8223 26.86H96.6163C96.6163 28.084 96.8203 29.0473 97.2283 29.75C97.659 30.43 98.2597 30.77 99.0303 30.77V34.51C97.6477 34.51 96.4123 34.1813 95.3243 33.524C94.259 32.844 93.409 31.926 92.7743 30.77C92.1397 29.614 91.8223 28.3107 91.8223 26.86ZM106.476 26.86C106.476 28.3107 106.159 29.614 105.524 30.77C104.89 31.926 104.028 32.844 102.94 33.524C101.875 34.1813 100.651 34.51 99.2683 34.51V30.77C100.039 30.77 100.628 30.43 101.036 29.75C101.467 29.0473 101.682 28.084 101.682 26.86H106.476ZM109.44 34V16.49H114.234V34H109.44ZM112.738 23.018C112.738 21.6807 112.931 20.4907 113.316 19.448C113.701 18.3827 114.223 17.544 114.88 16.932C115.56 16.32 116.308 16.014 117.124 16.014L116.58 20.264C115.9 20.264 115.333 20.5247 114.88 21.046C114.449 21.5673 114.234 22.2247 114.234 23.018H112.738ZM118.756 21.114C118.416 20.8647 118.053 20.6607 117.668 20.502C117.283 20.3433 116.92 20.264 116.58 20.264L117.124 16.014C117.691 16.014 118.246 16.1273 118.79 16.354C119.334 16.558 119.81 16.864 120.218 17.272L118.756 21.114ZM123.125 26.486V23.698H135.093V26.486H123.125ZM127.783 34.544V30.804H128.089V34.544H127.783ZM120.609 26.928V23.562H125.403V26.928H120.609ZM130.299 23.698V22.95H135.093V23.698H130.299ZM135.093 22.95H130.299C130.299 21.9527 130.073 21.1593 129.619 20.57C129.166 19.9807 128.554 19.686 127.783 19.686V15.946C129.189 15.946 130.435 16.252 131.523 16.864C132.634 17.476 133.507 18.3147 134.141 19.38C134.776 20.4227 135.093 21.6127 135.093 22.95ZM130.605 28.016L134.855 28.798C134.674 29.9767 134.277 30.9967 133.665 31.858C133.053 32.7193 132.271 33.388 131.319 33.864C130.367 34.3173 129.291 34.544 128.089 34.544V30.804C128.747 30.804 129.302 30.566 129.755 30.09C130.209 29.5913 130.492 28.9 130.605 28.016ZM120.609 23.596C120.609 22.1227 120.927 20.8193 121.561 19.686C122.196 18.53 123.046 17.6233 124.111 16.966C125.199 16.286 126.435 15.946 127.817 15.946V19.686C127.047 19.686 126.446 20.0373 126.015 20.74C125.607 21.42 125.403 22.372 125.403 23.596H120.609ZM120.609 26.894H125.403C125.403 28.118 125.607 29.0813 126.015 29.784C126.446 30.464 127.047 30.804 127.817 30.804V34.544C126.435 34.544 125.199 34.2153 124.111 33.558C123.046 32.878 122.196 31.96 121.561 30.804C120.927 29.648 120.609 28.3447 120.609 26.894ZM147.241 34V22.678H152.035V34H147.241ZM143.263 34.51L144.011 30.94C144.646 30.94 145.201 30.7813 145.677 30.464C146.153 30.124 146.527 29.648 146.799 29.036C147.094 28.424 147.241 27.6873 147.241 26.826L149.247 26.588C149.247 28.1067 148.975 29.4667 148.431 30.668C147.887 31.8693 147.162 32.81 146.255 33.49C145.348 34.17 144.351 34.51 143.263 34.51ZM143.263 34.51C142.152 34.51 141.166 34.272 140.305 33.796C139.444 33.32 138.764 32.674 138.265 31.858C137.789 31.0193 137.551 30.0787 137.551 29.036L141.835 28.798C141.835 29.41 142.05 29.92 142.481 30.328C142.912 30.736 143.422 30.94 144.011 30.94L143.263 34.51ZM137.551 29.036C137.551 27.9707 137.834 27.03 138.401 26.214C138.99 25.398 139.772 24.752 140.747 24.276C141.744 23.7773 142.866 23.528 144.113 23.528L144.623 26.588C143.762 26.588 143.082 26.792 142.583 27.2C142.084 27.5853 141.835 28.118 141.835 28.798L137.551 29.036ZM144.623 26.588L144.113 23.528H148.465V26.588H144.623ZM147.241 26.826V22.916H149.247V26.588L147.241 26.826ZM152.035 22.95H147.241C147.241 21.9527 147.014 21.1593 146.561 20.57C146.108 19.9807 145.496 19.686 144.725 19.686V15.946C146.13 15.946 147.377 16.252 148.465 16.864C149.576 17.476 150.448 18.3147 151.083 19.38C151.718 20.4227 152.035 21.6127 152.035 22.95ZM142.209 22.474L137.993 21.692C138.174 20.4907 138.56 19.4707 139.149 18.632C139.761 17.7707 140.543 17.1133 141.495 16.66C142.47 16.184 143.558 15.946 144.759 15.946V19.686C144.102 19.686 143.535 19.924 143.059 20.4C142.606 20.876 142.322 21.5673 142.209 22.474ZM166.102 29.852V26.112H174.806V29.852H166.102ZM172.12 9.69L166.136 34H161.478L167.496 9.69H172.12ZM172.188 9.69L178.206 34H173.582L167.564 9.69H172.188ZM181.598 34V16.49H186.392V34H181.598ZM183.978 14.144C183.208 14.144 182.562 13.8947 182.04 13.396C181.542 12.8747 181.292 12.2287 181.292 11.458C181.292 10.6873 181.542 10.0413 182.04 9.52C182.562 8.976 183.208 8.704 183.978 8.704C184.749 8.704 185.395 8.976 185.916 9.52C186.46 10.0413 186.732 10.6873 186.732 11.458C186.732 12.2287 186.46 12.8747 185.916 13.396C185.395 13.8947 184.749 14.144 183.978 14.144ZM190.821 34V16.49H195.615V34H190.821ZM194.119 23.018C194.119 21.6807 194.311 20.4907 194.697 19.448C195.082 18.3827 195.603 17.544 196.261 16.932C196.941 16.32 197.689 16.014 198.505 16.014L197.961 20.264C197.281 20.264 196.714 20.5247 196.261 21.046C195.83 21.5673 195.615 22.2247 195.615 23.018H194.119ZM200.137 21.114C199.797 20.8647 199.434 20.6607 199.049 20.502C198.663 20.3433 198.301 20.264 197.961 20.264L198.505 16.014C199.071 16.014 199.627 16.1273 200.171 16.354C200.715 16.558 201.191 16.864 201.599 17.272L200.137 21.114ZM203.737 33.932H208.531V40.8H203.737V33.932ZM208.531 16.49V34H203.737V16.49H208.531ZM218.391 22.712V27.778H213.597V22.712H218.391ZM213.597 27.778H218.391C218.391 29.07 218.13 30.226 217.609 31.246C217.11 32.266 216.419 33.0707 215.535 33.66C214.673 34.2493 213.687 34.544 212.577 34.544L211.183 30.77C211.931 30.77 212.52 30.5093 212.951 29.988C213.381 29.444 213.597 28.7073 213.597 27.778ZM207.035 27.506H208.531C208.531 28.5033 208.769 29.2967 209.245 29.886C209.743 30.4753 210.389 30.77 211.183 30.77L212.577 34.544C211.534 34.544 210.593 34.238 209.755 33.626C208.916 32.9913 208.247 32.1527 207.749 31.11C207.273 30.0447 207.035 28.8433 207.035 27.506ZM213.597 22.712C213.597 21.7827 213.381 21.0573 212.951 20.536C212.52 19.992 211.931 19.72 211.183 19.72L212.577 15.946C213.687 15.946 214.673 16.2407 215.535 16.83C216.419 17.4193 217.11 18.224 217.609 19.244C218.13 20.264 218.391 21.42 218.391 22.712H213.597ZM207.035 22.95C207.035 21.6127 207.273 20.4227 207.749 19.38C208.247 18.3147 208.916 17.476 209.755 16.864C210.593 16.252 211.534 15.946 212.577 15.946L211.183 19.72C210.389 19.72 209.743 20.0147 209.245 20.604C208.769 21.1933 208.531 21.9753 208.531 22.95H207.035ZM230.71 26.894V23.596H235.504V26.894H230.71ZM220.85 26.894V23.596H225.644V26.894H220.85ZM227.99 19.72V15.98H228.33V19.72H227.99ZM227.99 34.51V30.77H228.33V34.51H227.99ZM220.85 23.63C220.85 22.1567 221.167 20.8533 221.802 19.72C222.436 18.564 223.286 17.6573 224.352 17C225.44 16.32 226.675 15.98 228.058 15.98V19.72C227.287 19.72 226.686 20.06 226.256 20.74C225.848 21.42 225.644 22.3833 225.644 23.63H220.85ZM235.504 23.63H230.71C230.71 22.3833 230.494 21.42 230.064 20.74C229.656 20.06 229.066 19.72 228.296 19.72V15.98C229.678 15.98 230.902 16.32 231.968 17C233.056 17.6573 233.917 18.564 234.552 19.72C235.186 20.8533 235.504 22.1567 235.504 23.63ZM220.85 26.86H225.644C225.644 28.084 225.848 29.0473 226.256 29.75C226.686 30.43 227.287 30.77 228.058 30.77V34.51C226.675 34.51 225.44 34.1813 224.352 33.524C223.286 32.844 222.436 31.926 221.802 30.77C221.167 29.614 220.85 28.3107 220.85 26.86ZM235.504 26.86C235.504 28.3107 235.186 29.614 234.552 30.77C233.917 31.926 233.056 32.844 231.968 33.524C230.902 34.1813 229.678 34.51 228.296 34.51V30.77C229.066 30.77 229.656 30.43 230.064 29.75C230.494 29.0473 230.71 28.084 230.71 26.86H235.504ZM238.467 34V16.49H243.261V34H238.467ZM241.765 23.018C241.765 21.6807 241.958 20.4907 242.343 19.448C242.729 18.3827 243.25 17.544 243.907 16.932C244.587 16.32 245.335 16.014 246.151 16.014L245.607 20.264C244.927 20.264 244.361 20.5247 243.907 21.046C243.477 21.5673 243.261 22.2247 243.261 23.018H241.765ZM247.783 21.114C247.443 20.8647 247.081 20.6607 246.695 20.502C246.31 20.3433 245.947 20.264 245.607 20.264L246.151 16.014C246.718 16.014 247.273 16.1273 247.817 16.354C248.361 16.558 248.837 16.864 249.245 17.272L247.783 21.114ZM252.904 27.88V9.69H257.698V27.88H252.904ZM250.932 20.06V16.49H261.982V20.06H250.932ZM252.904 27.846H257.698C257.698 28.458 257.777 28.9907 257.936 29.444C258.117 29.8747 258.366 30.2033 258.684 30.43C259.001 30.6567 259.375 30.77 259.806 30.77L259.262 34.544C257.267 34.544 255.703 33.9547 254.57 32.776C253.459 31.5973 252.904 29.954 252.904 27.846ZM261.336 30.192L263.036 33.286C262.424 33.7167 261.8 34.034 261.166 34.238C260.554 34.442 259.919 34.544 259.262 34.544L259.806 30.77C260.1 30.77 260.372 30.7247 260.622 30.634C260.871 30.5207 261.109 30.3733 261.336 30.192Z" fill="#081F5C"/>
<path d="M49.8669 32.1013C48.7373 34.0577 47.2334 35.7725 45.4411 37.1478C43.6489 38.5231 41.6032 39.5319 39.4211 40.1166C37.2389 40.7013 34.963 40.8505 32.7232 40.5556C30.4834 40.2607 28.3236 39.5276 26.3671 38.398C24.4106 37.2684 22.6958 35.7646 21.3205 33.9723C19.9453 32.18 18.9365 30.1344 18.3518 27.9522C17.7671 25.7701 17.6179 23.4941 17.9128 21.2543C18.2077 19.0145 18.9408 16.8547 20.0704 14.8982L34.9686 23.4998L49.8669 32.1013Z" fill="#D0E3FF"/>
<path d="M20.0706 14.8985C21.2002 12.942 22.7041 11.2272 24.4964 9.85194C26.2887 8.47667 28.3343 7.46788 30.5164 6.88317C32.6986 6.29847 34.9745 6.1493 37.2143 6.44417C39.4541 6.73905 41.6139 7.4722 43.5704 8.60176C45.5269 9.73133 47.2417 11.2352 48.617 13.0275C49.9922 14.8198 51.001 16.8654 51.5857 19.0475C52.1704 21.2297 52.3196 23.5056 52.0247 25.7455C51.7298 27.9853 50.9967 30.145 49.8671 32.1015L34.9689 23.5L20.0706 14.8985Z" fill="#081F5C"/>
<circle cx="42.4174" cy="27.8009" r="8.60151" transform="rotate(30 42.4174 27.8009)" fill="#D0E3FF"/>
<circle cx="27.519" cy="19.1993" r="8.60151" transform="rotate(30 27.519 19.1993)" fill="#081F5C"/>
<path fill-rule="evenodd" clip-rule="evenodd" d="M67.5025 29.5206C68.367 27.4334 68.812 25.1964 68.812 22.9373L51.6094 22.9373C51.6093 27.6876 47.7583 31.5385 43.0079 31.5385C38.2575 31.5385 34.4065 27.6876 34.4064 22.9373L34.406 22.9373C34.406 25.1964 34.851 27.4334 35.7155 29.5206C36.58 31.6077 37.8472 33.5042 39.4446 35.1016C41.0421 36.6991 42.9385 37.9662 45.0257 38.8308C47.1129 39.6953 49.3499 40.1403 51.609 40.1403C53.8681 40.1403 56.1051 39.6953 58.1923 38.8308C60.2795 37.9662 62.1759 36.6991 63.7734 35.1016C65.3708 33.5042 66.638 31.6077 67.5025 29.5206Z" fill="#081F5C"/>
<circle cx="60.211" cy="22.9373" r="8.60151" transform="rotate(-180 60.211 22.9373)" fill="#081F5C"/>
<path fill-rule="evenodd" clip-rule="evenodd" d="M1.3095 17.7878C0.444968 19.8749 9.87499e-08 22.112 0 24.3711L17.203 24.3711L17.2032 24.3711C17.2033 19.6207 21.0543 15.7698 25.8047 15.7698C30.5303 15.7698 34.3658 19.5806 34.4059 24.2967C34.3962 22.0629 33.9516 19.8521 33.0965 17.7878C32.232 15.7006 30.9648 13.8042 29.3674 12.2067C27.7699 10.6093 25.8735 9.34212 23.7863 8.47758C21.6992 7.61305 19.4621 7.16808 17.203 7.16808C14.9439 7.16808 12.7069 7.61305 10.6197 8.47758C8.53254 9.34211 6.63609 10.6093 5.03865 12.2067C3.4412 13.8042 2.17403 15.7006 1.3095 17.7878Z" fill="#D0E3FF"/>
<circle cx="8.60199" cy="24.3715" r="8.60151" fill="#D0E3FF"/>
</svg>
